<?xml version="1.0" standalone="no"?>
<!DOCTYPE svg PUBLIC "-//W3C//DTD SVG 20010904//EN"
 "http://www.w3.org/TR/2001/REC-SVG-20010904/DTD/svg10.dtd">
<svg version="1.0" xmlns="http://www.w3.org/2000/svg"
 width="16.000000pt" height="16.000000pt" viewBox="0 0 16.000000 16.000000"
 preserveAspectRatio="xMidYMid meet">
<metadata>
Created by potrace 1.11, written by Peter Selinger 2001-2013
</metadata>
<g transform="translate(0.000000,16.000000) scale(0.002286,-0.002286)"
fill="#000000" stroke="none">
<path d="M3198 6920 c-991 -96 -1867 -586 -2453 -1374 -360 -484 -569 -1011
-657 -1656 -17 -128 -17 -652 0 -780 88 -645 297 -1172 657 -1656 523 -703
1303 -1186 2155 -1333 235 -41 302 -46 600 -46 298 0 365 5 600 46 852 147
1632 630 2155 1333 316 425 535 932 624 1446 41 235 46 302 46 600 0 298 -5
365 -46 600 -130 753 -525 1456 -1102 1967 -523 462 -1130 738 -1842 839 -128
18 -604 27 -737 14z m162 -2450 l0 -130 -365 0 -365 0 0 -970 0 -970 -145 0
-145 0 0 970 0 970 -360 0 -360 0 0 130 0 130 870 0 870 0 0 -130z m1162 -726
l573 -856 5 854 5 853 138 3 137 3 0 -1101 0 -1100 -147 0 -148 0 -575 861
-575 860 -3 -861 -2 -860 -140 0 -140 0 0 1100 0 1100 149 0 150 0 573 -856z"/>
</g>
</svg>
